<svg id="waveUp" xmlns="http://www.w3.org/2000/svg" viewBox="0 0 77.34 77.34"><defs><style>.cls-1{fill:#aaa;stroke:#aaa;stroke-miterlimit:10;stroke-width:4px;}.cls-2{fill:#fff;}</style></defs><title>social-twitter</title><circle class="cls-1" cx="38.67" cy="38.67" r="36.67"/><path class="cls-2" d="M428.38,46.48A19.23,19.23,0,0,1,422.85,48a9.63,9.63,0,0,0,4.23-5.32A19.21,19.21,0,0,1,421,45a9.63,9.63,0,0,0-16.39,8.77,27.3,27.3,0,0,1-19.82-10,9.64,9.64,0,0,0,3,12.84,9.2,9.2,0,0,1-4.37-1.2v.12A9.63,9.63,0,0,0,391.15,65a9.35,9.35,0,0,1-2.53.34,9.5,9.5,0,0,1-1.81-.17,9.62,9.62,0,0,0,9,6.68,19.45,19.45,0,0,1-14.24,4,27.25,27.25,0,0,0,14.74,4.32c17.69,0,27.36-14.65,27.36-27.36V51.53A19.5,19.5,0,0,0,428.38,46.48Z" transform="translate(-365.42 -20.82)"/></svg>