<svg id="waveUp" xmlns="http://www.w3.org/2000/svg" viewBox="0 0 77.34 77.34"><defs><style>.cls-1{fill:#aaa;stroke:#aaa;stroke-miterlimit:10;stroke-width:4px;}.cls-2{fill:#fff;}</style></defs><title>social-insta</title><circle class="cls-1" cx="38.67" cy="38.67" r="36.67"/><path class="cls-2" d="M525.73,37.39h-17A12.86,12.86,0,0,0,495.84,50.2v18A12.87,12.87,0,0,0,508.76,81h17a12.9,12.9,0,0,0,12.89-12.86v-18A12.85,12.85,0,0,0,525.73,37.39Zm-8.48,32.18a10.42,10.42,0,1,1,10.42-10.42h0a10.42,10.42,0,0,1-10.42,10.42ZM530.07,49.1a2.85,2.85,0,1,1,2.85-2.85h0a2.85,2.85,0,0,1-2.84,2.86h0Z" transform="translate(-478.47 -20.82)"/></svg>